<svg width="24" height="24" viewBox="0 0 24 24" fill="currentColor" xmlns="http://www.w3.org/2000/svg">
<path d="M17.05 20.28C16.07 21.28 14.87 22.07 13.5 22.64C12.13 23.21 10.69 23.5 9.17 23.5C7.79 23.5 6.49 23.26 5.27 22.78C4.05 22.3 2.97 21.6 2.03 20.68C1.09 19.76 0.35 18.68 -0.19 17.44C-0.73 16.2 -1 14.82 -1 13.3C-1 11.78 -0.73 10.34 -0.19 8.98C0.35 7.62 1.09 6.42 2.03 5.38C2.97 4.34 4.05 3.52 5.27 2.92C6.49 2.32 7.79 2.02 9.17 2.02C10.55 2.02 11.85 2.32 13.07 2.92C14.29 3.52 15.37 4.34 16.31 5.38C17.25 6.42 17.99 7.62 18.53 8.98C19.07 10.34 19.34 11.78 19.34 13.3C19.34 14.82 19.07 16.2 18.53 17.44C17.99 18.68 17.25 19.76 16.31 20.68C15.37 21.6 14.29 22.3 13.07 22.78C11.85 23.26 10.55 23.5 9.17 23.5Z" fill="currentColor"/>
<path d="M12.5 7C12.5 6.5 12.6 6.1 12.8 5.8C13 5.5 13.3 5.2 13.7 5C14.1 4.8 14.5 4.7 15 4.7C15.2 4.7 15.4 4.7 15.6 4.8C15.8 4.9 16 5 16.2 5.1C16.4 5.2 16.6 5.3 16.8 5.5C17 5.7 17.1 5.9 17.2 6.1C17.3 6.3 17.4 6.5 17.4 6.7C17.4 7.1 17.3 7.4 17.1 7.6C16.9 7.8 16.6 7.9 16.2 7.9C15.8 7.9 15.5 7.8 15.3 7.6C15.1 7.4 15 7.1 15 6.7C15 6.3 15.1 6 15.3 5.8C15.5 5.6 15.8 5.5 16.2 5.5C16.6 5.5 16.9 5.6 17.1 5.8C17.3 6 17.4 6.3 17.4 6.7C17.4 7.1 17.3 7.4 17.1 7.6C16.9 7.8 16.6 7.9 16.2 7.9C15.8 7.9 15.5 7.8 15.3 7.6C15.1 7.4 15 7.1 15 6.7C15 6.3 15.1 6 15.3 5.8C15.5 5.6 15.8 5.5 16.2 5.5C16.6 5.5 16.9 5.6 17.1 5.8C17.3 6 17.4 6.3 17.4 6.7V7H12.5Z" fill="white"/>
</svg>
